<?xml version="1.0" standalone="no"?>
<!DOCTYPE svg PUBLIC "-//W3C//DTD SVG 20010904//EN"
 "http://www.w3.org/TR/2001/REC-SVG-20010904/DTD/svg10.dtd">
<svg version="1.0" xmlns="http://www.w3.org/2000/svg"
 width="1000.000000pt" height="1000.000000pt" viewBox="0 0 1000.000000 1000.000000"
 preserveAspectRatio="xMidYMid meet">

<g transform="translate(0.000000,1000.000000) scale(0.100000,-0.100000)"
fill="#000000" stroke="none">
<path d="M7266 9665 c-11 -8 -28 -15 -38 -15 -10 0 -18 -3 -18 -7 0 -5 -21
-17 -48 -27 -26 -11 -94 -41 -152 -68 -58 -27 -118 -55 -135 -63 -16 -8 -83
-39 -148 -69 -64 -31 -120 -56 -124 -56 -3 0 -52 -22 -109 -50 -57 -27 -106
-50 -110 -50 -3 0 -56 -24 -118 -54 -61 -29 -167 -80 -236 -111 -69 -32 -177
-83 -240 -113 -154 -73 -266 -122 -279 -122 -6 0 -11 -3 -11 -8 0 -7 -27 -21
-82 -41 -16 -6 -79 -35 -140 -65 -145 -69 -238 -111 -264 -120 -25 -8 -100
-107 -187 -247 -37 -58 -74 -112 -84 -121 -12 -10 -48 -18 -107 -22 -49 -3
-105 -10 -125 -15 -20 -5 -78 -15 -130 -21 -52 -7 -102 -16 -110 -20 -9 -4
-45 -13 -81 -19 -64 -12 -157 -36 -195 -51 -11 -4 -51 -18 -90 -30 -121 -38
-385 -149 -385 -162 0 -5 -7 -8 -15 -8 -8 0 -15 -3 -15 -8 0 -4 -21 -15 -47
-24 -27 -10 -86 -41 -132 -70 -46 -29 -100 -62 -121 -74 -20 -11 -68 -45 -106
-75 -38 -30 -87 -68 -109 -84 -144 -107 -402 -359 -505 -494 -19 -25 -41 -50
-47 -54 -7 -4 -13 -14 -13 -22 0 -7 -3 -15 -8 -17 -22 -9 -179 -244 -222 -333
-8 -16 -24 -43 -36 -60 -24 -35 -85 -163 -133 -280 -5 -11 -17 -40 -28 -65
-45 -101 -62 -147 -68 -180 -3 -19 -10 -44 -14 -55 -20 -49 -51 -154 -51 -173
0 -12 -4 -23 -9 -26 -5 -3 -12 -34 -16 -68 -4 -35 -10 -76 -15 -93 -5 -16 -14
-59 -20 -95 -6 -36 -16 -83 -21 -105 -5 -22 -14 -150 -19 -284 -9 -206 -8
-258 4 -325 8 -45 20 -135 26 -201 12 -119 15 -138 44 -265 8 -36 22 -99 31
-140 10 -41 21 -79 25 -85 5 -5 11 -27 15 -48 4 -20 11 -37 15 -37 4 0 10 -18
14 -40 3 -22 14 -57 22 -77 9 -21 20 -47 25 -58 4 -11 17 -41 28 -67 12 -26
21 -50 21 -53 0 -8 94 -199 101 -205 3 -3 18 -30 33 -60 28 -58 85 -152 111
-185 8 -10 15 -23 15 -29 0 -5 6 -17 13 -25 8 -9 24 -33 36 -53 l22 -37 -41
-43 c-22 -24 -40 -46 -40 -49 0 -3 -8 -15 -18 -27 -10 -11 -27 -33 -38 -47
-10 -15 -30 -39 -44 -54 -42 -48 -150 -181 -150 -187 0 -5 75 9 85 16 6 4 48
13 95 20 47 7 90 16 95 20 6 5 39 13 75 19 103 18 112 20 172 32 l57 12 48
-53 c46 -52 107 -112 203 -199 25 -22 76 -62 115 -88 38 -26 81 -58 95 -71 37
-34 169 -125 215 -147 22 -11 42 -23 45 -26 3 -3 26 -16 52 -28 27 -13 50 -26
53 -31 3 -4 23 -17 44 -28 22 -12 50 -26 63 -33 13 -7 30 -15 38 -19 18 -8 26
-40 13 -49 -6 -3 -22 -26 -37 -51 -28 -47 -69 -107 -84 -126 -26 -30 -142
-214 -142 -223 0 -6 -4 -11 -9 -11 -5 0 -24 -24 -42 -52 -18 -29 -36 -55 -40
-58 -12 -9 -99 -148 -99 -158 0 -6 -7 -12 -15 -16 -8 -3 -15 -12 -15 -21 0 -8
-4 -15 -10 -15 -5 0 -10 -7 -10 -15 0 -8 -4 -15 -9 -15 -5 0 -13 -10 -17 -22
-3 -12 -12 -28 -18 -35 -29 -32 -36 -43 -36 -53 0 -5 -4 -10 -8 -10 -5 0 -15
-12 -23 -27 -15 -31 -18 -34 -52 -78 -13 -16 -49 -73 -80 -125 -31 -52 -65
-104 -75 -115 -32 -34 -121 -170 -159 -242 -9 -18 -20 -33 -25 -33 -4 0 -8 -5
-8 -10 0 -6 -5 -16 -10 -23 -55 -66 -216 -314 -208 -322 2 -2 15 2 28 10 14 8
32 17 40 21 8 4 39 22 68 41 29 18 58 33 64 33 7 0 42 18 79 40 37 22 72 40
78 40 6 0 11 4 11 8 0 5 35 26 78 48 42 21 79 41 82 45 3 3 15 9 28 13 12 4
22 12 22 17 0 5 5 9 12 9 15 0 172 81 253 130 33 20 83 47 110 60 28 13 77 40
110 60 33 20 83 46 110 59 28 13 77 40 110 60 33 20 96 55 140 76 44 22 86 46
93 53 7 6 20 12 28 12 8 0 14 3 14 8 0 4 10 12 23 18 98 48 250 131 266 146
11 10 25 18 32 18 11 0 97 44 279 144 47 26 92 51 100 57 8 5 23 12 33 15 9 4
17 10 17 15 0 5 6 9 14 9 7 0 19 6 25 14 6 7 25 16 41 20 24 4 40 21 79 83 27
43 54 83 60 90 6 7 11 15 11 17 0 7 24 37 65 82 27 30 36 34 85 35 139 3 594
72 655 99 11 5 51 16 89 25 70 17 273 89 356 127 25 11 59 26 75 33 112 48
226 108 253 133 7 6 18 12 23 12 12 0 113 62 117 72 2 4 7 8 12 8 5 0 41 23
82 50 40 28 81 56 92 63 10 6 31 23 47 37 65 56 96 82 128 105 62 45 271 256
336 339 17 21 49 59 73 85 23 25 77 98 119 161 42 63 80 117 85 118 4 2 8 8 8
12 0 5 24 48 53 97 85 139 189 362 232 493 16 47 36 103 45 125 22 50 56 164
68 230 6 28 19 97 31 155 12 58 29 161 37 230 17 135 35 469 27 484 -3 5 -8
48 -10 95 -8 161 -10 186 -31 311 -20 121 -33 179 -66 305 -26 96 -39 139 -47
150 -4 6 -10 26 -14 45 -11 54 -109 300 -154 388 -23 43 -41 82 -41 86 0 3
-25 48 -56 99 -31 51 -68 112 -82 137 -25 46 -66 104 -89 128 -8 8 -20 27 -28
43 -9 16 -20 29 -25 29 -6 0 -10 6 -10 13 0 7 -12 26 -27 43 -16 16 -52 60
-80 97 -50 63 -63 91 -45 99 9 3 107 152 138 208 10 19 22 37 27 38 4 2 7 8 7
13 0 4 23 42 50 82 28 41 50 77 50 80 0 4 -10 3 -22 -2 -48 -19 -63 -25 -78
-27 -8 -2 -40 -10 -70 -19 -30 -9 -68 -20 -85 -25 -16 -5 -80 -25 -142 -44
-180 -56 -172 -57 -245 4 -35 28 -71 58 -81 66 -9 8 -22 14 -27 14 -6 0 -10 4
-10 9 0 5 -24 24 -52 42 -29 19 -54 37 -56 41 -2 5 -9 8 -14 8 -6 0 -59 31
-117 68 -58 38 -128 80 -156 94 -79 40 -225 108 -267 125 -21 8 -38 21 -38 28
0 7 21 41 48 75 26 35 57 77 69 94 12 17 27 36 33 43 5 7 10 15 10 18 0 4 6
13 13 20 29 33 37 45 37 54 0 5 7 11 15 15 8 3 15 10 15 17 0 6 17 31 39 55
21 24 65 84 97 132 32 48 64 93 71 100 7 7 13 16 13 20 0 4 13 21 28 37 39 41
162 212 162 225 0 5 3 10 8 10 4 0 22 23 41 50 19 28 38 50 43 50 4 0 8 7 8
15 0 8 5 15 11 15 5 0 7 5 4 10 -3 6 -2 10 4 10 6 0 28 27 50 59 22 32 46 65
53 73 7 7 30 39 51 70 34 51 51 72 87 115 5 7 10 15 10 17 0 6 8 16 61 80 25
31 120 166 116 166 -1 0 -11 -7 -21 -15z m-478 -406 c1 -8 -30 -57 -69 -109
-160 -213 -319 -429 -319 -435 0 -3 -9 -16 -20 -28 -35 -38 -65 -79 -149 -197
-44 -63 -84 -119 -89 -125 -30 -37 -156 -207 -202 -271 -30 -43 -110 -151
-177 -241 -68 -90 -123 -167 -123 -172 0 -5 -3 -11 -8 -13 -4 -1 -25 -28 -47
-58 -22 -30 -45 -61 -51 -67 -7 -7 -55 -72 -108 -145 -177 -245 -336 -463
-348 -478 -21 -25 -92 -121 -132 -178 -22 -32 -29 -48 -19 -42 14 7 76 27 113
35 3 0 34 10 70 22 36 11 99 31 140 43 41 11 91 27 110 34 19 8 69 23 110 35
122 35 181 53 255 77 39 12 90 27 115 34 25 6 54 15 65 19 11 5 52 18 90 29
39 11 124 37 190 58 66 21 125 39 130 39 6 1 39 10 75 22 36 11 99 31 140 43
86 25 215 65 345 106 50 15 92 29 95 29 31 6 77 19 90 26 28 14 106 35 118 31
7 -2 12 -8 12 -12 0 -9 -74 -129 -263 -425 -53 -82 -119 -188 -148 -235 -29
-47 -89 -141 -135 -210 -45 -69 -101 -157 -125 -197 -24 -39 -83 -133 -131
-208 -49 -74 -88 -137 -88 -140 0 -2 -31 -51 -70 -109 -38 -57 -98 -151 -133
-208 -35 -56 -119 -187 -186 -290 -66 -103 -121 -190 -121 -193 0 -3 -31 -52
-68 -108 -38 -56 -95 -145 -127 -197 -32 -52 -67 -106 -79 -118 -15 -18 13 -7
109 41 72 36 189 93 260 127 174 84 408 197 645 312 107 53 298 146 423 207
125 61 232 111 236 111 5 0 14 7 21 15 14 17 60 21 60 5 0 -6 -21 -39 -46 -73
-25 -34 -78 -111 -118 -172 -181 -275 -207 -314 -248 -370 -55 -78 -188 -277
-188 -282 0 -2 -17 -27 -38 -56 -21 -29 -139 -203 -263 -387 -123 -184 -227
-337 -230 -340 -3 -3 -56 -81 -117 -175 -61 -93 -115 -175 -120 -180 -21 -25
-162 -234 -162 -240 0 -3 -5 -11 -10 -18 -18 -22 -184 -264 -222 -324 -20 -32
-78 -119 -129 -193 -51 -74 -112 -164 -135 -200 -24 -36 -47 -69 -51 -75 -5
-5 -49 -71 -98 -145 -50 -74 -93 -136 -97 -138 -5 -2 -8 -8 -8 -14 0 -5 -26
-47 -59 -91 -81 -114 -191 -283 -191 -295 0 -6 -3 -12 -7 -14 -5 -2 -21 -20
-37 -41 -15 -21 -36 -41 -45 -45 -9 -3 -106 -55 -216 -115 -110 -60 -234 -128
-275 -150 -41 -22 -100 -54 -130 -72 -30 -18 -93 -53 -140 -77 -114 -60 -210
-112 -300 -163 -41 -23 -169 -93 -285 -155 -115 -62 -227 -124 -247 -136 -21
-13 -40 -24 -43 -24 -2 0 -41 -20 -86 -45 -80 -44 -109 -54 -109 -36 0 9 51
91 113 181 52 76 577 859 643 960 34 52 104 156 154 230 98 145 215 321 320
480 36 54 99 150 141 212 42 62 97 145 122 183 26 39 77 115 113 170 37 55 97
145 133 200 36 55 81 120 100 144 24 32 28 42 15 37 -11 -4 -44 -12 -74 -17
-30 -6 -68 -14 -85 -19 -16 -5 -75 -19 -130 -30 -55 -12 -117 -25 -137 -31
-21 -5 -81 -18 -135 -29 -54 -10 -127 -26 -163 -34 -36 -9 -96 -22 -135 -30
-38 -7 -90 -18 -115 -24 -156 -38 -268 -64 -290 -67 -14 -1 -70 -13 -125 -25
-55 -12 -129 -28 -165 -36 -36 -7 -94 -21 -130 -29 -36 -8 -108 -24 -160 -35
-52 -10 -135 -29 -185 -40 -228 -52 -252 -50 -192 16 19 22 52 62 73 90 21 28
66 84 99 125 33 41 63 79 67 84 4 6 25 30 45 56 21 25 67 83 103 129 60 76
197 247 383 475 41 50 131 162 201 250 70 88 142 178 160 200 19 22 78 96 132
165 54 69 101 127 104 130 3 3 42 50 85 105 44 55 102 127 130 160 27 34 61
76 75 94 14 19 39 50 55 70 17 20 62 74 100 121 37 47 75 94 84 104 15 18 15
18 -4 8 -11 -6 -42 -16 -70 -22 -27 -6 -86 -19 -130 -29 -44 -11 -112 -26
-150 -34 -89 -20 -106 -24 -180 -41 -33 -8 -93 -22 -134 -31 -41 -9 -78 -18
-82 -21 -4 -2 -38 -11 -76 -18 -37 -8 -97 -22 -133 -30 -121 -30 -257 -60
-430 -97 -52 -11 -104 -24 -116 -29 -28 -11 -53 4 -39 24 34 49 131 194 140
208 10 18 323 483 544 808 69 102 149 221 178 265 28 44 56 85 60 90 5 6 49
71 98 145 50 74 93 137 96 140 3 3 14 21 25 40 10 19 24 40 29 46 12 12 261
380 355 523 36 55 108 161 160 238 52 76 113 167 136 203 24 36 47 70 51 75 5
6 49 71 98 145 50 74 93 137 98 138 4 2 7 7 7 12 0 5 45 74 101 155 l101 146
82 38 c246 117 298 141 304 141 4 0 30 12 57 26 28 13 113 54 190 89 140 63
288 132 400 185 33 15 83 38 110 50 28 13 86 39 130 60 44 21 105 49 136 63
30 14 94 44 141 66 47 23 90 41 95 41 6 0 16 7 23 15 15 18 34 15 38 -6z
m-2190 -1195 c3 -20 -87 -168 -113 -186 -6 -5 -6 -8 0 -8 6 0 5 -3 -1 -8 -12
-8 -147 -201 -204 -292 -19 -30 -37 -57 -40 -60 -3 -3 -51 -75 -108 -160 -56
-85 -109 -164 -117 -175 -9 -11 -50 -73 -93 -138 -42 -64 -120 -180 -172 -256
-52 -77 -117 -173 -143 -215 -26 -42 -54 -81 -60 -88 -7 -7 -39 -53 -71 -103
-33 -49 -75 -114 -95 -143 -20 -29 -40 -61 -46 -70 -5 -9 -12 -19 -15 -22 -7
-6 -71 -99 -85 -122 -27 -46 -151 -223 -157 -226 -5 -2 -8 -10 -8 -17 0 -8 -7
-20 -15 -29 -8 -8 -53 -72 -100 -143 -46 -70 -89 -133 -95 -140 -5 -7 -10 -16
-10 -21 0 -5 -9 -19 -20 -32 -18 -21 -84 -118 -194 -288 -26 -40 -53 -78 -59
-85 -32 -32 -136 -197 -120 -189 10 6 39 13 66 17 26 4 49 11 52 15 3 5 29 11
58 15 51 6 208 41 237 53 8 3 24 7 35 8 11 2 52 10 90 19 39 9 99 23 135 30
36 8 106 24 155 35 50 12 113 26 140 31 28 5 70 16 95 24 60 19 314 76 368 82
33 4 42 2 42 -10 0 -16 -133 -189 -225 -292 -14 -16 -58 -70 -96 -120 -139
-178 -140 -179 -244 -305 -64 -77 -118 -144 -145 -180 -30 -40 -119 -151 -287
-359 -68 -84 -123 -154 -123 -158 0 -3 -8 -13 -18 -22 -10 -9 -27 -28 -37 -42
-11 -15 -49 -62 -85 -106 -36 -44 -76 -95 -90 -113 -63 -85 -123 -151 -133
-147 -15 4 -115 147 -116 165 -1 6 -5 12 -10 12 -5 0 -13 9 -16 21 -4 11 -30
62 -59 112 -28 51 -64 124 -80 162 -16 39 -39 93 -51 120 -53 124 -133 366
-127 388 1 4 -4 29 -12 55 -34 112 -56 256 -76 482 -9 103 7 571 20 606 6 14
10 42 10 62 0 80 87 456 112 487 4 5 8 16 8 25 0 52 224 556 252 568 4 2 8 8
8 14 0 14 178 279 232 345 116 143 224 258 333 356 121 109 346 287 363 287 5
0 22 10 37 23 51 40 148 95 305 174 159 80 174 86 270 123 30 11 62 24 71 29
9 5 34 13 55 17 22 3 44 10 49 14 6 4 26 11 45 14 30 6 66 17 150 44 8 2 26 6
40 8 23 2 123 22 225 44 69 14 110 8 113 -16z m1437 -174 c20 -11 41 -20 48
-20 21 0 318 -155 424 -221 137 -86 283 -192 283 -205 0 -17 -76 -49 -190 -80
-58 -15 -116 -34 -130 -41 -14 -7 -32 -13 -41 -13 -16 0 -105 -26 -209 -60
-30 -10 -95 -30 -145 -45 -49 -15 -108 -33 -130 -40 -22 -7 -78 -24 -125 -36
-47 -13 -89 -26 -95 -30 -5 -4 -28 -10 -50 -14 -22 -4 -56 -14 -75 -21 -90
-33 -240 -75 -250 -69 -20 12 -10 38 40 101 28 35 50 66 50 69 0 3 5 11 10 18
6 7 24 30 40 52 16 22 33 45 37 50 54 70 158 212 189 256 34 50 69 97 234 317
22 28 42 52 45 52 2 0 20 -9 40 -20z m1208 -883 c20 -28 53 -70 73 -92 34 -39
98 -129 120 -170 6 -11 36 -61 67 -111 31 -50 57 -96 57 -102 0 -7 4 -12 9
-12 5 0 12 -12 16 -27 4 -16 11 -33 16 -40 17 -19 98 -183 108 -216 12 -39 42
-120 63 -167 9 -19 21 -57 28 -85 6 -27 15 -59 20 -70 16 -44 40 -133 49 -190
6 -33 12 -69 15 -80 19 -83 25 -120 31 -190 4 -44 9 -96 11 -115 14 -126 15
-212 5 -418 -6 -128 -20 -288 -31 -355 -21 -129 -56 -289 -70 -322 -5 -11 -11
-31 -13 -45 -11 -54 -38 -145 -46 -150 -5 -3 -12 -21 -16 -40 -4 -19 -21 -64
-37 -100 -52 -115 -58 -130 -58 -145 0 -7 -3 -15 -7 -17 -8 -3 -18 -21 -86
-153 -29 -56 -180 -296 -202 -322 -5 -6 -21 -26 -35 -44 -14 -19 -44 -57 -67
-86 -24 -29 -43 -55 -43 -57 0 -3 -60 -67 -132 -142 -142 -146 -258 -246 -421
-361 -56 -39 -113 -80 -127 -91 -14 -10 -54 -35 -90 -54 -36 -19 -87 -49 -115
-65 -60 -35 -148 -77 -280 -133 -27 -11 -57 -24 -65 -29 -9 -5 -30 -12 -48
-16 -18 -4 -61 -18 -95 -31 -34 -14 -91 -32 -127 -40 -125 -29 -175 -42 -190
-48 -16 -6 -162 -29 -318 -48 -80 -10 -95 -9 -108 4 -12 12 -13 19 -3 41 7 15
16 27 21 27 4 0 8 6 8 13 0 8 9 22 20 32 11 10 50 65 87 124 63 101 131 200
143 211 3 3 23 32 44 65 92 143 152 230 159 233 4 2 7 10 7 17 0 7 3 15 8 17
8 4 49 63 271 398 20 30 44 63 53 75 10 11 43 61 74 110 31 50 60 92 63 95 9
7 203 299 218 328 7 13 26 40 41 60 36 46 142 200 142 207 0 8 64 100 73 103
4 2 7 10 7 17 0 7 4 15 8 17 4 2 27 32 52 68 24 36 52 77 62 92 10 15 18 31
18 36 0 5 6 15 14 21 14 12 165 231 263 383 29 45 59 90 68 102 9 12 23 33 33
47 66 99 142 214 179 272 25 37 50 73 57 80 14 15 116 166 116 172 0 8 69 112
84 127 8 8 53 73 100 144 47 71 90 134 95 141 12 14 14 33 4 33 -4 0 -68 -30
-143 -66 -74 -37 -178 -88 -230 -113 -52 -25 -96 -49 -98 -53 -2 -5 -8 -8 -13
-8 -10 0 -87 -32 -119 -49 -64 -33 -156 -79 -280 -139 -227 -109 -314 -152
-330 -162 -8 -5 -37 -19 -65 -30 -27 -11 -61 -27 -75 -34 -97 -54 -354 -176
-368 -176 -14 0 -17 56 -3 62 8 3 101 144 101 154 0 5 7 16 68 106 18 25 32
51 32 56 0 6 4 12 8 14 5 2 71 102 147 223 76 121 165 259 197 307 32 47 58
89 58 93 0 4 50 83 110 175 61 92 110 173 110 179 0 6 4 11 9 11 5 0 11 10 15
23 3 12 14 32 24 43 23 24 145 216 163 257 7 15 16 27 21 27 4 0 8 6 8 14 0 8
4 16 8 18 4 2 34 45 67 96 33 52 66 92 74 92 9 0 33 -24 54 -53z m-2923 -3761
c0 -12 -16 -44 -36 -71 -19 -28 -77 -113 -128 -190 -51 -77 -106 -160 -123
-185 -66 -95 -273 -412 -273 -417 0 -11 -63 -92 -75 -97 -12 -4 -169 71 -282
135 -107 61 -332 220 -409 288 -218 197 -224 203 -215 220 7 11 40 22 103 33
51 9 125 24 163 33 39 9 111 25 160 35 146 30 189 41 210 50 11 5 27 8 35 8 8
0 49 8 90 17 41 9 113 25 160 35 47 11 117 26 155 35 39 9 113 25 165 35 52
10 128 27 169 39 41 11 77 18 81 16 3 -2 12 0 20 5 19 12 30 3 30 -24z"/>
<path d="M5670 8618 c-14 -22 -29 -46 -35 -52 -5 -6 -28 -38 -51 -71 -22 -33
-60 -89 -85 -125 -24 -36 -46 -67 -49 -70 -3 -3 -20 -27 -39 -55 -19 -27 -36
-52 -37 -54 -2 -2 -10 2 -18 8 -19 16 -30 9 -65 -40 -16 -21 -31 -36 -34 -33
-5 5 -19 -15 -29 -40 -3 -10 -21 -32 -70 -89 -16 -17 -28 -37 -28 -44 0 -7 -4
-13 -8 -13 -5 0 -23 -21 -41 -46 -23 -33 -29 -49 -21 -54 9 -5 5 -19 -14 -48
-31 -49 -37 -54 -89 -58 -87 -6 -152 -17 -164 -26 -7 -5 -16 -7 -20 -5 -5 3
-24 -19 -43 -48 -19 -30 -38 -54 -42 -55 -5 0 -8 -4 -8 -10 0 -5 -35 -59 -77
-119 -43 -61 -134 -192 -203 -291 -130 -188 -258 -373 -378 -545 -61 -88 -208
-321 -240 -381 -10 -19 -7 -25 23 -45 40 -28 43 -41 15 -76 -11 -14 -20 -31
-20 -37 0 -6 -8 -19 -17 -28 -30 -28 -43 -47 -43 -61 0 -8 -13 -31 -30 -52
-16 -21 -30 -43 -30 -49 0 -6 -18 -35 -40 -65 -22 -29 -40 -58 -40 -65 0 -6
-13 -24 -29 -39 -16 -15 -31 -40 -35 -55 -3 -15 -17 -40 -31 -55 l-25 -28 -60
41 -59 40 -17 -25 c-9 -14 -15 -27 -13 -29 57 -42 373 -256 380 -256 8 0 29
32 29 44 0 3 -25 22 -55 42 -60 40 -60 35 -7 92 7 8 19 27 27 42 8 16 23 35
33 42 9 7 26 27 36 43 10 17 29 41 42 55 25 26 73 92 125 173 17 26 34 45 38
43 4 -3 16 12 27 32 36 69 30 70 181 -32 123 -84 377 -265 442 -315 l24 -18
-44 -59 c-24 -32 -47 -63 -51 -69 -14 -17 -172 -232 -188 -255 -8 -12 -84
-115 -168 -228 -84 -114 -161 -218 -170 -231 -9 -13 -42 -57 -72 -97 -122
-164 -118 -157 -114 -199 10 -102 14 -132 19 -163 5 -25 0 -41 -24 -76 -18
-26 -38 -43 -48 -42 -10 0 -23 -12 -33 -32 -9 -19 -21 -33 -26 -33 -5 1 -13
-11 -18 -26 -5 -16 -14 -31 -21 -35 -7 -4 -18 -22 -26 -40 -7 -18 -16 -35 -20
-38 -4 -3 -15 -19 -25 -36 -37 -61 -73 -112 -84 -119 -8 -5 -6 -14 4 -30 14
-22 11 -28 -62 -130 -78 -108 -150 -206 -209 -285 -31 -41 -44 -90 -23 -90 5
0 15 10 21 23 7 12 15 24 18 27 8 7 165 216 224 300 81 113 83 116 100 101 13
-10 21 -6 51 24 20 20 36 41 36 47 0 6 3 8 7 5 10 -11 33 13 33 34 0 11 6 19
13 19 8 0 20 12 28 27 8 15 26 38 41 51 15 13 27 27 25 31 -1 5 9 20 23 35 63
65 71 81 48 88 -9 3 -3 17 16 44 16 21 30 40 32 42 1 2 22 5 45 7 79 8 212 24
213 27 7 13 62 94 67 98 3 3 21 28 40 55 19 28 63 88 98 133 l64 82 96 -67
c53 -37 106 -74 118 -82 28 -20 29 -36 3 -68 -11 -14 -20 -31 -20 -37 0 -6 -8
-19 -17 -28 -30 -28 -43 -47 -43 -61 0 -8 -13 -31 -30 -52 -16 -21 -30 -43
-30 -49 0 -6 -18 -35 -40 -65 -22 -29 -40 -58 -40 -65 0 -6 -13 -24 -29 -39
-16 -15 -31 -40 -35 -55 -3 -15 -17 -40 -31 -55 l-25 -28 -60 41 -59 40 -17
-25 c-9 -14 -15 -27 -13 -29 57 -42 373 -256 380 -256 8 0 29 32 29 44 0 3
-25 22 -55 42 -60 40 -60 35 -7 92 7 8 19 27 27 42 8 16 23 35 33 42 9 7 26
27 36 43 10 17 29 41 42 55 25 26 73 92 125 173 17 26 34 45 38 42 5 -2 17 13
27 35 10 22 24 42 31 44 8 4 352 -248 452 -331 4 -3 -20 -39 -51 -78 -14 -17
-172 -232 -188 -255 -8 -12 -84 -115 -168 -228 -84 -114 -161 -218 -170 -231
-9 -13 -42 -57 -72 -97 -122 -164 -118 -157 -114 -199 10 -102 14 -132 19
-163 5 -25 0 -41 -24 -76 -18 -26 -38 -43 -48 -42 -11 0 -24 -12 -34 -34 -9
-19 -21 -34 -25 -33 -5 2 -13 -9 -18 -25 -5 -15 -14 -30 -21 -34 -7 -4 -18
-22 -26 -40 -7 -18 -16 -35 -20 -38 -4 -3 -15 -19 -25 -36 -37 -61 -73 -112
-84 -119 -8 -5 -6 -14 4 -30 14 -22 11 -28 -62 -130 -78 -108 -150 -206 -209
-285 -31 -41 -44 -90 -23 -90 5 0 15 10 21 23 7 12 15 24 18 27 8 7 165 216
224 300 81 113 83 116 100 101 13 -10 21 -6 51 24 20 20 36 41 36 47 0 6 3 8
7 5 10 -11 33 13 33 34 0 11 6 19 13 19 8 0 20 12 28 27 8 15 26 38 41 51 15
13 27 27 25 31 -1 5 9 20 23 35 63 65 71 81 48 88 -9 3 -3 17 16 44 16 21 30
40 32 42 1 2 22 5 45 7 79 8 212 24 213 27 6 12 64 96 73 108 7 8 28 36 45 62
18 25 74 100 123 165 50 66 128 173 175 238 47 64 90 122 95 129 6 6 26 34 45
61 18 28 45 64 59 80 14 17 34 42 44 55 32 46 147 205 164 229 10 14 35 47 56
75 20 28 37 56 37 63 0 7 4 13 8 13 9 0 110 122 118 143 2 7 -15 28 -41 47
-25 18 -45 37 -45 40 0 4 9 15 20 25 11 10 20 24 20 31 0 7 16 29 35 50 19 20
35 42 35 49 0 7 16 32 35 56 19 24 35 49 35 56 0 6 6 18 13 25 23 24 67 87 67
95 0 4 14 22 30 40 17 18 30 39 30 47 0 8 15 31 34 50 27 29 35 33 40 21 3 -9
10 -14 15 -11 5 3 12 -1 15 -10 4 -9 9 -14 12 -11 3 2 17 -6 31 -19 l26 -24
24 26 c13 15 21 30 16 33 -4 4 -42 32 -83 62 -41 30 -84 63 -96 74 -12 11 -61
47 -109 79 -83 57 -88 59 -101 41 -17 -24 -18 -55 -1 -55 6 0 23 -12 36 -25
13 -14 29 -25 37 -25 20 0 17 -14 -7 -36 -12 -10 -30 -31 -39 -47 -19 -30 -72
-94 -137 -165 -24 -26 -43 -50 -43 -55 0 -4 -16 -24 -35 -44 -19 -19 -37 -44
-40 -54 -4 -11 -11 -19 -16 -19 -5 0 -9 -4 -9 -10 0 -5 -10 -20 -22 -33 -13
-12 -33 -36 -45 -51 l-21 -28 -47 33 c-45 33 -47 33 -61 14 -8 -10 -14 -23
-14 -27 0 -5 -5 -14 -10 -21 -6 -7 -21 -25 -34 -41 l-24 -29 -154 116 c-217
165 -215 163 -203 181 38 57 111 162 115 166 3 3 24 33 48 68 23 34 61 90 84
125 24 34 45 64 48 67 3 3 24 33 48 68 23 34 61 90 84 125 24 34 45 64 48 67
3 3 23 32 46 65 22 33 58 85 79 115 21 30 62 89 90 130 28 41 72 105 98 142
46 65 47 68 38 115 -5 26 -12 73 -16 102 -3 30 -8 58 -11 62 -9 15 60 105 78
101 11 -2 20 8 28 32 6 20 15 36 20 36 5 0 14 16 20 35 6 19 15 35 19 35 3 0
15 17 26 38 11 20 25 41 32 45 7 4 13 16 13 26 0 10 11 31 25 47 14 16 25 34
25 39 0 6 9 19 21 28 19 17 20 20 5 36 -9 10 -16 21 -16 25 0 6 49 86 60 96 3
3 19 25 35 50 33 50 130 189 143 205 29 38 72 111 69 119 -7 22 -23 13 -47
-26 -14 -22 -29 -46 -35 -52 -5 -6 -30 -40 -54 -76 -25 -36 -63 -92 -85 -125
-23 -33 -43 -62 -46 -65 -3 -3 -20 -27 -39 -55 -19 -27 -36 -52 -37 -54 -2 -2
-10 2 -18 8 -19 16 -30 9 -65 -40 -16 -21 -31 -36 -34 -33 -5 5 -33 -37 -29
-43 1 -2 -22 -30 -70 -86 -16 -17 -28 -37 -28 -44 0 -7 -4 -13 -8 -13 -5 0
-23 -21 -41 -46 -23 -33 -29 -49 -21 -54 9 -5 5 -19 -14 -48 -31 -49 -37 -54
-89 -58 -87 -6 -152 -17 -164 -26 -7 -5 -16 -7 -20 -5 -5 3 -24 -19 -43 -48
-19 -30 -38 -54 -42 -55 -5 0 -8 -4 -8 -10 0 -5 -35 -58 -77 -119 -43 -60 -83
-118 -89 -127 -10 -17 -18 -13 -90 39 -43 32 -92 69 -109 82 l-29 24 22 24
c12 13 22 28 22 34 0 7 16 28 35 49 19 20 35 42 35 49 0 7 16 32 35 56 19 24
35 49 35 56 0 6 6 18 13 25 23 24 67 87 67 95 0 4 14 22 30 40 17 18 30 39 30
47 0 8 15 31 34 50 27 29 35 33 40 21 3 -9 10 -14 15 -11 5 3 12 -1 15 -10 4
-9 9 -14 12 -11 3 2 17 -6 31 -19 l26 -24 24 26 c13 15 21 30 16 33 -4 4 -42
32 -83 62 -41 30 -84 63 -96 74 -12 11 -61 47 -109 79 -83 57 -88 59 -101 41
-17 -24 -18 -55 -1 -55 6 0 23 -12 36 -25 13 -14 29 -25 37 -25 20 0 17 -14
-7 -36 -12 -10 -30 -31 -39 -47 -19 -30 -72 -94 -137 -165 -24 -26 -43 -50
-43 -55 0 -4 -16 -24 -35 -44 -19 -19 -37 -44 -40 -54 -4 -11 -11 -19 -16 -19
-5 0 -9 -4 -9 -10 0 -5 -10 -20 -22 -33 -13 -12 -33 -36 -45 -51 l-22 -29 -53
38 c-29 21 -57 43 -63 50 -5 6 -31 25 -57 43 -25 18 -52 38 -60 45 -25 25 -47
27 -62 5 -19 -27 -17 -29 88 -103 47 -33 86 -63 86 -66 0 -32 -55 1 -267 157
-131 97 -244 182 -252 189 -12 12 -7 25 35 87 27 40 51 75 54 78 3 3 24 33 48
68 23 34 61 90 84 125 24 34 45 64 48 67 3 3 25 34 49 70 25 36 63 92 85 125
23 33 43 62 46 65 3 3 23 32 46 65 22 33 58 85 79 115 21 30 62 89 90 130 28
41 72 105 98 142 46 65 47 68 38 115 -5 26 -12 73 -16 102 -3 30 -8 58 -11 62
-9 15 60 105 78 101 11 -2 20 8 28 32 6 20 15 36 20 36 5 0 14 16 20 35 6 19
15 35 19 35 3 0 15 17 26 38 11 20 25 41 32 45 7 4 13 16 13 26 0 10 11 31 25
47 14 16 25 34 25 39 0 6 9 19 21 28 19 17 20 20 5 36 -9 10 -16 21 -16 25 0
6 49 86 60 96 3 3 19 25 35 50 33 50 130 189 143 205 29 38 72 111 69 119 -7
22 -23 13 -47 -26z m-1085 -1522 c32 -23 64 -44 69 -48 6 -4 5 -12 -3 -22 -11
-13 -22 -9 -90 37 -67 44 -77 54 -68 69 12 19 10 20 92 -36z m-65 -252 c0 -29
-24 -23 -94 27 -65 45 -74 55 -65 71 9 17 16 15 84 -33 41 -28 75 -57 75 -65z
m-135 -194 c3 -6 -1 -13 -9 -16 -9 -3 -43 14 -83 42 -37 26 -69 49 -71 49 -1
1 0 9 4 18 5 14 19 8 79 -33 41 -27 76 -54 80 -60z m-177 -159 c42 -31 50 -40
39 -49 -19 -16 -172 89 -155 106 13 13 30 4 116 -57z m-150 -179 c34 -24 62
-48 62 -53 0 -26 -36 -15 -104 32 -66 46 -73 54 -58 65 19 14 16 15 100 -44z
m948 -689 c68 -51 74 -58 56 -66 -28 -13 -169 88 -151 109 6 8 13 14 16 14 2
0 38 -26 79 -57z m246 -21 c2 -5 24 -23 51 -41 26 -17 47 -35 47 -39 0 -4 -42
-68 -94 -142 -52 -74 -134 -193 -183 -263 -91 -132 -219 -317 -333 -481 l-65
-93 -65 45 c-36 25 -69 49 -74 53 -9 8 102 169 202 294 4 6 23 33 42 60 18 28
45 64 59 80 14 17 34 42 44 55 32 46 147 205 164 229 61 84 96 131 125 165 18
21 40 49 48 62 15 25 26 30 32 16z m-365 -194 c23 -17 40 -35 37 -40 -9 -14
-17 -10 -65 30 -25 20 -56 44 -69 53 -14 9 -21 20 -16 28 6 9 16 5 39 -14 18
-14 51 -40 74 -57z m588 -62 c32 -23 64 -44 69 -48 6 -4 5 -12 -3 -22 -11 -13
-22 -9 -90 37 -67 44 -77 54 -68 69 12 19 10 20 92 -36z m-700 -142 c14 -10
16 -17 8 -25 -7 -7 -32 5 -86 44 -55 39 -73 57 -65 65 8 8 26 0 67 -29 31 -23
65 -47 76 -55z m635 -110 c0 -29 -24 -23 -94 27 -65 45 -74 55 -65 71 9 17 16
15 84 -33 41 -28 75 -57 75 -65z m-829 -45 c45 -33 66 -55 62 -65 -3 -8 -7
-14 -10 -14 -4 0 -130 88 -152 106 -6 5 10 24 21 24 6 0 41 -23 79 -51z m694
-149 c3 -6 -1 -13 -9 -16 -9 -3 -43 14 -83 42 -37 26 -69 49 -71 49 -1 1 0 9
4 18 5 14 19 8 79 -33 41 -27 76 -54 80 -60z m-827 -39 c34 -24 62 -48 62 -52
0 -3 -6 -11 -13 -17 -10 -8 -17 -7 -29 6 -20 21 -55 48 -90 70 -27 16 -35 32
-22 45 8 8 14 5 92 -52z m650 -120 c42 -31 50 -40 39 -49 -19 -16 -172 89
-155 106 13 13 30 4 116 -57z m-150 -179 c34 -24 62 -48 62 -53 0 -26 -36 -15
-104 32 -66 46 -73 54 -58 65 19 14 16 15 100 -44z m828 -559 c68 -51 74 -58
56 -66 -28 -13 -169 88 -151 109 6 8 13 14 16 14 2 0 38 -26 79 -57z m-119
-215 c23 -17 40 -35 37 -40 -9 -14 -17 -10 -65 30 -25 20 -56 44 -69 53 -14 9
-21 20 -16 28 6 9 16 5 39 -14 18 -14 51 -40 74 -57z m-112 -204 c14 -10 16
-17 8 -25 -7 -7 -32 5 -86 44 -55 39 -73 57 -65 65 8 8 26 0 67 -29 31 -23 65
-47 76 -55z m-194 -155 c45 -33 66 -55 62 -65 -3 -8 -7 -14 -10 -14 -4 0 -130
88 -152 106 -6 5 10 24 21 24 6 0 41 -23 79 -51z m-133 -188 c34 -24 62 -48
62 -52 0 -3 -6 -11 -13 -17 -10 -8 -17 -7 -29 6 -20 21 -55 48 -90 70 -27 16
-35 32 -22 45 8 8 14 5 92 -52z"/>
</g>
</svg>
